<?xml version="1.0" encoding="UTF-8" standalone="no"?>
<!-- Created with Inkscape (http://www.inkscape.org/) -->

<svg
   xmlns:dc="http://purl.org/dc/elements/1.1/"
   xmlns:cc="http://creativecommons.org/ns#"
   xmlns:rdf="http://www.w3.org/1999/02/22-rdf-syntax-ns#"
   xmlns:svg="http://www.w3.org/2000/svg"
   xmlns="http://www.w3.org/2000/svg"
   xmlns:sodipodi="http://sodipodi.sourceforge.net/DTD/sodipodi-0.dtd"
   xmlns:inkscape="http://www.inkscape.org/namespaces/inkscape"
   id="svg2"
   version="1.1"
   inkscape:version="0.48.2 r9819"
   width="1530"
   height="990"
   xml:space="preserve"
   sodipodi:docname="LaptopStand-Top-v3.0_extended1cm.pdf"><metadata
     id="metadata8"><rdf:RDF><cc:Work
         rdf:about=""><dc:format>image/svg+xml</dc:format><dc:type
           rdf:resource="http://purl.org/dc/dcmitype/StillImage" /><dc:title></dc:title></cc:Work></rdf:RDF></metadata><defs
     id="defs6"><clipPath
       clipPathUnits="userSpaceOnUse"
       id="clipPath16"><path
         d="M 0,792 1224,792 1224,0 0,0 0,792 z"
         id="path18" /></clipPath></defs><sodipodi:namedview
     pagecolor="#ffffff"
     bordercolor="#666666"
     borderopacity="1"
     objecttolerance="10"
     gridtolerance="10"
     guidetolerance="10"
     inkscape:pageopacity="0"
     inkscape:pageshadow="2"
     inkscape:window-width="721"
     inkscape:window-height="480"
     id="namedview4"
     showgrid="false"
     inkscape:zoom="0.23838384"
     inkscape:cx="346.10927"
     inkscape:cy="495"
     inkscape:window-x="0"
     inkscape:window-y="0"
     inkscape:window-maximized="0"
     inkscape:current-layer="g10" /><g
     id="g10"
     inkscape:groupmode="layer"
     inkscape:label="LaptopStand-Top-v3.0_extended1cm"
     transform="matrix(1.25,0,0,-1.25,0,990)"><g
       id="g12"
       style="stroke:#ff0000;stroke-opacity:1;stroke-width:1;stroke-miterlimit:4;stroke-dasharray:none"><g
         id="g14"
         clip-path="url(#clipPath16)"
         style="stroke:#ff0000;stroke-opacity:1;stroke-width:1;stroke-miterlimit:4;stroke-dasharray:none"><g
           id="g20"
           transform="translate(135.1206,553.5781)"
           style="stroke:#ff0000;stroke-opacity:1;stroke-width:1;stroke-miterlimit:4;stroke-dasharray:none"><path
             d="m 0,0 -7.937,0 0,63.779 7.938,0 L 0,0 z m -7.937,-127.559 0,63.779 7.937,0 0.001,-63.779 -7.938,0 z m 0,-255.119 -10e-4,63.78 7.938,0 0.001,-63.78 -7.938,0 z m 0,191.34 7.937,0 0,-63.779 -7.937,0 0,63.779 z M 410.174,120.475 -7.937,120.474 c -15.655,0 -28.346,-12.691 -28.347,-28.346 l 10e-4,-510.237 c 0.001,-15.655 12.692,-28.346 28.346,-28.346 l 238.682,0 c 1.297,-0.182 2.62,-0.281 3.966,-0.281 1.348,0 2.67,0.099 3.967,0.281 12.475,1.748 22.343,11.611 24.096,24.086 0.183,1.301 0.284,2.627 0.284,3.978 0,1.352 -0.101,2.68 -0.284,3.981 l 0,194.728 c 0,15.655 12.691,28.346 28.347,28.346 l 119.053,0"
             style="fill:none;stroke:#ff0000;stroke-opacity:1;stroke-width:1;stroke-linecap:butt;stroke-linejoin:miter;stroke-miterlimit:4;stroke-dasharray:none"
             id="path22" /></g><path
           d="m 991.752,553.578 -7.938,0 0,63.779 7.938,0 0,-63.779 z m 0,-127.559 -7.938,0 0,63.779 7.938,0 0,-63.779 z m 0,-127.558 -7.938,0 0,63.779 7.938,0 0,-63.779 z m 0,-127.561 -7.938,0 0,63.779 7.938,0 0,-63.779 z m -418.111,191.342 119.054,0 c 15.655,0 28.346,-12.691 28.346,-28.346 l 0,-194.728 c -0.184,-1.301 -0.283,-2.629 -0.283,-3.98 0,-1.352 0.099,-2.678 0.283,-3.979 1.754,-12.475 11.621,-22.338 24.096,-24.086 1.297,-0.182 2.619,-0.281 3.967,-0.281 1.347,0 2.669,0.099 3.966,0.281 l 238.682,0 c 15.654,0 28.346,12.691 28.346,28.346 l 0,510.237 c -0,15.655 -12.694,28.346 -28.348,28.346 l -418.111,10e-4"
           style="fill:none;stroke:#ff0000;stroke-opacity:1;stroke-width:1;stroke-linecap:butt;stroke-linejoin:miter;stroke-miterlimit:4;stroke-dasharray:none"
           id="path24" /><g
           id="g26"
           transform="translate(545.2954,674.0527)"
           style="stroke:#ff0000;stroke-opacity:1;stroke-width:1;stroke-miterlimit:4;stroke-dasharray:none"><path
             d="M 0,0 28.346,0"
             style="fill:none;stroke:#ff0000;stroke-opacity:1;stroke-width:1;stroke-linecap:butt;stroke-linejoin:miter;stroke-miterlimit:4;stroke-dasharray:none"
             id="path28" /></g><g
           id="g30"
           transform="translate(545.2949,362.2422)"
           style="stroke:#ff0000;stroke-opacity:1;stroke-width:1;stroke-miterlimit:4;stroke-dasharray:none"><path
             d="M 0,0 28.347,0"
             style="fill:none;stroke:#ff0000;stroke-opacity:1;stroke-width:1;stroke-linecap:butt;stroke-linejoin:miter;stroke-miterlimit:4;stroke-dasharray:none"
             id="path32" /></g></g></g></g></svg>