<?xml version="1.0" encoding="UTF-8" standalone="no"?>
<!-- Created with Inkscape (http://www.inkscape.org/) -->

<svg
   xmlns:dc="http://purl.org/dc/elements/1.1/"
   xmlns:cc="http://creativecommons.org/ns#"
   xmlns:rdf="http://www.w3.org/1999/02/22-rdf-syntax-ns#"
   xmlns:svg="http://www.w3.org/2000/svg"
   xmlns="http://www.w3.org/2000/svg"
   xmlns:sodipodi="http://sodipodi.sourceforge.net/DTD/sodipodi-0.dtd"
   xmlns:inkscape="http://www.inkscape.org/namespaces/inkscape"
   id="svg2"
   version="1.1"
   inkscape:version="0.48.2 r9819"
   width="1530"
   height="990"
   xml:space="preserve"
   sodipodi:docname="LaptopStand-Sides-v3.0_extended1cmWithMiddlePart.pdf"><metadata
     id="metadata8"><rdf:RDF><cc:Work
         rdf:about=""><dc:format>image/svg+xml</dc:format><dc:type
           rdf:resource="http://purl.org/dc/dcmitype/StillImage" /><dc:title></dc:title></cc:Work></rdf:RDF></metadata><defs
     id="defs6"><clipPath
       clipPathUnits="userSpaceOnUse"
       id="clipPath16"><path
         d="M 0,792 1224,792 1224,0 0,0 0,792 z"
         id="path18" /></clipPath></defs><sodipodi:namedview
     pagecolor="#ffffff"
     bordercolor="#666666"
     borderopacity="1"
     objecttolerance="10"
     gridtolerance="10"
     guidetolerance="10"
     inkscape:pageopacity="0"
     inkscape:pageshadow="2"
     inkscape:window-width="1440"
     inkscape:window-height="852"
     id="namedview4"
     showgrid="false"
     inkscape:zoom="0.48"
     inkscape:cx="455.25193"
     inkscape:cy="396.55345"
     inkscape:window-x="0"
     inkscape:window-y="0"
     inkscape:window-maximized="1"
     inkscape:current-layer="g12" /><g
     id="g10"
     inkscape:groupmode="layer"
     inkscape:label="LaptopStand-Sides-v3.0_extended1cmWithMiddlePart"
     transform="matrix(1.25,0,0,-1.25,0,990)"><g
       id="g12"
       style="stroke:#ff0000;stroke-opacity:1;stroke-width:1;stroke-miterlimit:4;stroke-dasharray:none"><g
         style="stroke:#ff0000;stroke-width:1;stroke-miterlimit:4;stroke-opacity:1;stroke-dasharray:none"
         transform="translate(420.5288,333.3008)"
         id="g20"><path
           inkscape:connector-curvature="0"
           id="path22"
           style="fill:none;stroke:#ff0000;stroke-width:1;stroke-linecap:butt;stroke-linejoin:miter;stroke-miterlimit:4;stroke-opacity:1;stroke-dasharray:none"
           d="m -83.037,-333.301 201.85,0 0,55.274 c -0.784,0.002 -1.418,0.636 -1.418,1.418 0,0.783 0.634,1.418 1.418,1.418 0.781,0 1.416,-0.635 1.416,-1.418 l 5.118,0.002 c 0,0.781 0.634,1.416 1.418,1.416 0.781,0 1.416,-0.635 1.416,-1.418 0,-0.782 -0.633,-1.418 -1.416,-1.416 l 0,-55.276 154.734,0 0,446.997 -0.01,0 c -0.041,4.73 -1.26,9.512 -3.793,13.901 -7.828,13.558 -25.164,18.203 -38.723,10.375 l -42.047,-24.276 -7.048,-4.069 -4.227,7.38 -55.247,-31.897 4.24,-7.373 L 79.408,45.847 75.092,53.175 19.848,21.279 24.174,13.957 0.478,0.276 0,0 27.637,-47.867 c 0.679,0.388 1.547,0.156 1.937,-0.52 0.391,-0.679 0.158,-1.545 -0.519,-1.937 -0.676,-0.391 -1.543,-0.158 -1.936,0.519 l -4.431,-2.56 c 0.39,-0.677 0.158,-1.543 -0.52,-1.935 -0.676,-0.39 -1.543,-0.159 -1.936,0.52 -0.39,0.676 -0.16,1.545 0.518,1.934 l -27.637,47.87 -24.175,-13.957 -4.209,7.329 -55.234,-31.891 4.209,-7.327 -55.234,-31.88 -4.261,7.346 -55.237,-31.885 4.262,-7.352 -55.235,-31.889 -4.252,7.365 -24.549,-14.174 -28.418,49.221 -21.589,-12.465 c -1.07,-0.453 -2.126,-0.967 -3.157,-1.563 -1.032,-0.595 -2.006,-1.254 -2.933,-1.953 -10.665,-8.053 -14.287,-22.613 -8.479,-34.777 0.32,-0.67 0.66,-1.336 1.038,-1.99 0.378,-0.656 0.784,-1.284 1.205,-1.896 l 81.645,-141.414 19.73,-34.173 4.607,0 146.147,0 z"
           sodipodi:nodetypes="cccssccsscccccccccccccccccccccccccccccccccccccccccccccccccc" /></g><g
         style="stroke:#ff0000;stroke-width:1;stroke-miterlimit:4;stroke-opacity:1;stroke-dasharray:none"
         transform="translate(408.7607,361.4092)"
         id="g24"><path
           inkscape:connector-curvature="0"
           id="path26"
           style="fill:none;stroke:#ff0000;stroke-width:1;stroke-linecap:butt;stroke-linejoin:miter;stroke-miterlimit:4;stroke-opacity:1;stroke-dasharray:none"
           d="m -118.813,333.308 0,-55.273 c 0.784,-0.002 1.418,-0.637 1.418,-1.418 0,-0.784 -0.634,-1.418 -1.418,-1.418 -0.781,0 -1.416,0.634 -1.416,1.418 l -5.118,-0.002 c 0,-0.782 -0.634,-1.416 -1.418,-1.416 -0.781,0 -1.416,0.634 -1.416,1.418 0,0.781 0.633,1.418 1.416,1.416 l 0,55.275 -154.733,0 0,-447.004 0.009,0 c 0.041,-4.73 1.26,-9.512 3.794,-13.901 7.828,-13.558 25.164,-18.203 38.722,-10.375 l 42.046,24.276 7.049,4.069 4.227,-7.38 55.247,31.897 -4.24,7.373 55.236,31.89 4.316,-7.328 55.244,31.896 -4.326,7.322 L -0.478,-0.276 0,0 -27.637,47.865 c -0.679,-0.389 -1.547,-0.157 -1.937,0.519 -0.391,0.68 -0.158,1.545 0.519,1.938 0.676,0.39 1.543,0.158 1.936,-0.52 l 4.431,2.561 c -0.39,0.677 -0.158,1.543 0.52,1.934 0.676,0.391 1.543,0.16 1.936,-0.519 0.39,-0.677 0.16,-1.545 -0.518,-1.935 L 6.887,3.976 l 24.175,13.957 4.209,-7.329 55.234,31.889 -4.209,7.327 55.234,31.889 4.261,-7.348 55.238,31.888 -4.263,7.351 55.237,31.89 4.252,-7.365 24.549,14.173 28.418,-49.22 21.59,12.464 c 1.07,0.454 2.125,0.967 3.157,1.563 1.032,0.596 2.006,1.254 2.932,1.953 10.665,8.054 14.287,22.613 8.48,34.777 -0.32,0.67 -0.66,1.336 -1.038,1.991 -0.378,0.655 -0.785,1.283 -1.205,1.895 l -81.646,141.414 -19.729,34.173 -4.608,0 -150.1335,0 z"
           sodipodi:nodetypes="ccssccssccccccscccccccccccccccccccccccccccccccccsccscccccc" /></g></g></g></svg>